# xmcd
#
# Track frame offsets: 
#        150
#        17296
#        33345
#        52983
#        69222
#        89675
#        109316
#        135286
#        148258
#        163929
#        179530
#        196112
#        208956
#        227237
#        240335
#        255372
#        267882
#        283476
#        301228
#        324629
#        338689
#
# Disc length: 4714 seconds
#
# Revision: 0
# Processed by: cddbd v1.5.1PL0 Copyright (c) Steve Scherf et al.
# Submitted via: ExactAudioCopy v0.95b1
#
DISCID=2e126815
DTITLE=邓丽君 - 天国的情人
DYEAR=2005
DGENRE=Country
TTITLE0=无奈
TTITLE1=今晚要的爱
TTITLE2=Killing Me Softly With His Song
TTITLE3=Love Story
TTITLE4=真夏的果实
TTITLE5=Smoke Gets In Your Eyes
TTITLE6=The Power Of Love (Live)
TTITLE7=何日君再来
TTITLE8=月亮代表我的心
TTITLE9=甜蜜蜜
TTITLE10=漫步人生路
TTITLE11=又见炊烟
TTITLE12=但原人长久
TTITLE13=忘记他
TTITLE14=海韵
TTITLE15=再见我的爱人
TTITLE16=小城故事
TTITLE17=在水一方
TTITLE18=云河
TTITLE19=路边的野花不要采
TTITLE20=酒醉的探戈
EXTD=
EXTT0=
EXTT1=
EXTT2=
EXTT3=
EXTT4=
EXTT5=
EXTT6=
EXTT7=
EXTT8=
EXTT9=
EXTT10=
EXTT11=
EXTT12=
EXTT13=
EXTT14=
EXTT15=
EXTT16=
EXTT17=
EXTT18=
EXTT19=
EXTT20=
PLAYORDER=
